<svg width="28" height="28" viewBox="0 0 28 28" fill="none" xmlns="http://www.w3.org/2000/svg">
<path d="M11.3737 2.7998C10.9845 2.79982 10.603 2.90795 10.2718 3.11215C9.94052 3.31634 9.67252 3.60856 9.49766 3.9562L8.67166 5.5998H6.30566C5.37741 5.5998 4.48717 5.96855 3.83079 6.62493C3.17441 7.28131 2.80566 8.17155 2.80566 9.0998V20.2998C2.80566 21.2281 3.17441 22.1183 3.83079 22.7747C4.48717 23.4311 5.37741 23.7998 6.30566 23.7998H13.4401C13.2111 23.3523 13.0268 22.8834 12.8899 22.3998H6.30706C5.75011 22.3998 5.21597 22.1786 4.82214 21.7847C4.42831 21.3909 4.20706 20.8568 4.20706 20.2998V9.0998C4.20706 8.54285 4.42831 8.00871 4.82214 7.61488C5.21597 7.22105 5.75011 6.9998 6.30706 6.9998H9.10426C9.23392 6.99954 9.36095 6.96327 9.4712 6.89505C9.58144 6.82682 9.67058 6.72932 9.72866 6.6134L10.7479 4.58481C10.8062 4.46894 10.8957 4.37158 11.0062 4.3036C11.1167 4.23561 11.2439 4.19968 11.3737 4.1998H16.6433C16.7734 4.19955 16.901 4.23557 17.0118 4.30383C17.1226 4.37208 17.2122 4.46987 17.2705 4.5862L18.2827 6.612C18.3409 6.72813 18.4302 6.82578 18.5407 6.89402C18.6512 6.96226 18.7786 6.9984 18.9085 6.9984H21.7071C22.264 6.9984 22.7982 7.21965 23.192 7.61348C23.5858 8.00731 23.8071 8.54145 23.8071 9.0984V13.4426C24.306 13.6982 24.7754 14.0075 25.2071 14.3652V9.0984C25.2071 8.17015 24.8383 7.27991 24.1819 6.62353C23.5256 5.96715 22.6353 5.5984 21.7071 5.5984H19.3411L18.5221 3.9604C18.3476 3.61155 18.0794 3.31819 17.7475 3.1132C17.4157 2.90821 17.0333 2.79969 16.6433 2.7998H11.3737ZM14.0001 8.3998C15.2502 8.39986 16.4644 8.81799 17.4494 9.58769C18.4345 10.3574 19.1339 11.4344 19.4363 12.6474C18.9708 12.6995 18.5111 12.7941 18.0629 12.9302C17.8747 12.2155 17.5014 11.563 16.9806 11.0386C16.4597 10.5143 15.8097 10.1366 15.0962 9.94376C14.3828 9.75089 13.631 9.74963 12.9169 9.94013C12.2028 10.1306 11.5516 10.5061 11.029 11.0287C10.5064 11.5513 10.1309 12.2026 9.94039 12.9167C9.74989 13.6308 9.75115 14.3825 9.94402 15.096C10.1369 15.8095 10.5146 16.4594 11.0389 16.9803C11.5633 17.5012 12.2157 17.8745 12.9305 18.0626C12.7945 18.5103 12.6998 18.9696 12.6477 19.4346C11.3248 19.1003 10.1694 18.2948 9.39828 17.1692C8.62712 16.0436 8.29321 14.6753 8.45919 13.321C8.62517 11.9667 9.27963 10.7195 10.2998 9.81347C11.3199 8.90741 12.6357 8.40475 14.0001 8.3998ZM26.6001 20.2998C26.6001 21.9707 25.9363 23.5731 24.7548 24.7546C23.5734 25.9361 21.9709 26.5998 20.3001 26.5998C18.6292 26.5998 17.0268 25.9361 15.8453 24.7546C14.6638 23.5731 14.0001 21.9707 14.0001 20.2998C14.0001 18.6289 14.6638 17.0265 15.8453 15.845C17.0268 14.6636 18.6292 13.9998 20.3001 13.9998C21.9709 13.9998 23.5734 14.6636 24.7548 15.845C25.9363 17.0265 26.6001 18.6289 26.6001 20.2998ZM21.0001 17.4998C21.0001 17.3142 20.9263 17.1361 20.795 17.0048C20.6638 16.8736 20.4857 16.7998 20.3001 16.7998C20.1144 16.7998 19.9364 16.8736 19.8051 17.0048C19.6738 17.1361 19.6001 17.3142 19.6001 17.4998V19.5998H17.5001C17.3144 19.5998 17.1364 19.6736 17.0051 19.8048C16.8738 19.9361 16.8001 20.1142 16.8001 20.2998C16.8001 20.4855 16.8738 20.6635 17.0051 20.7948C17.1364 20.9261 17.3144 20.9998 17.5001 20.9998H19.6001V23.0998C19.6001 23.2855 19.6738 23.4635 19.8051 23.5948C19.9364 23.7261 20.1144 23.7998 20.3001 23.7998C20.4857 23.7998 20.6638 23.7261 20.795 23.5948C20.9263 23.4635 21.0001 23.2855 21.0001 23.0998V20.9998H23.1001C23.2857 20.9998 23.4638 20.9261 23.595 20.7948C23.7263 20.6635 23.8001 20.4855 23.8001 20.2998C23.8001 20.1142 23.7263 19.9361 23.595 19.8048C23.4638 19.6736 23.2857 19.5998 23.1001 19.5998H21.0001V17.4998Z" fill="black"/>
</svg>
