<svg width="60" height="57" viewBox="0 0 60 57" fill="none" xmlns="http://www.w3.org/2000/svg">
<mask id="path-1-inside-1_1571_5881" fill="white">
<path d="M52.2061 26.653C54.2292 26.4569 56.0538 27.9426 55.9831 29.974C55.8071 35.0319 54.2617 39.9727 51.4795 44.255C48.0255 49.5711 42.8696 53.5578 36.8554 55.5628C30.8411 57.5678 24.3244 57.4725 18.3714 55.2924C12.4184 53.1123 7.38135 48.9766 4.08435 43.5617C0.787348 38.1467 -0.574473 31.7733 0.221661 25.4838C1.01779 19.1943 3.92475 13.3611 8.467 8.93855C13.0093 4.51595 18.9179 1.7657 25.2264 1.13771C30.3081 0.631846 35.4069 1.52718 39.9811 3.69278C41.8183 4.56255 42.3005 6.86555 41.1975 8.57285C40.0944 10.2802 37.8235 10.735 35.9476 9.95235C32.8092 8.64293 29.3771 8.12174 25.9555 8.46234C21.3055 8.92524 16.9501 10.9525 13.602 14.2124C10.2538 17.4724 8.11106 21.7721 7.52422 26.4081C6.93738 31.0442 7.9412 35.7422 10.3715 39.7336C12.8017 43.725 16.5146 46.7735 20.9026 48.3805C25.2907 49.9874 30.0942 50.0577 34.5274 48.5798C38.9606 47.1019 42.761 44.1633 45.307 40.2447C47.1804 37.3613 48.293 34.073 48.5704 30.6838C48.7362 28.6579 50.1829 26.8492 52.2061 26.653Z"/>
</mask>
<path d="M52.2061 26.653C54.2292 26.4569 56.0538 27.9426 55.9831 29.974C55.8071 35.0319 54.2617 39.9727 51.4795 44.255C48.0255 49.5711 42.8696 53.5578 36.8554 55.5628C30.8411 57.5678 24.3244 57.4725 18.3714 55.2924C12.4184 53.1123 7.38135 48.9766 4.08435 43.5617C0.787348 38.1467 -0.574473 31.7733 0.221661 25.4838C1.01779 19.1943 3.92475 13.3611 8.467 8.93855C13.0093 4.51595 18.9179 1.7657 25.2264 1.13771C30.3081 0.631846 35.4069 1.52718 39.9811 3.69278C41.8183 4.56255 42.3005 6.86555 41.1975 8.57285C40.0944 10.2802 37.8235 10.735 35.9476 9.95235C32.8092 8.64293 29.3771 8.12174 25.9555 8.46234C21.3055 8.92524 16.9501 10.9525 13.602 14.2124C10.2538 17.4724 8.11106 21.7721 7.52422 26.4081C6.93738 31.0442 7.9412 35.7422 10.3715 39.7336C12.8017 43.725 16.5146 46.7735 20.9026 48.3805C25.2907 49.9874 30.0942 50.0577 34.5274 48.5798C38.9606 47.1019 42.761 44.1633 45.307 40.2447C47.1804 37.3613 48.293 34.073 48.5704 30.6838C48.7362 28.6579 50.1829 26.8492 52.2061 26.653Z" stroke="#39DA00" stroke-width="10" mask="url(#path-1-inside-1_1571_5881)"/>
<path d="M30.284 37.7616L15.659 23.4616C14.7803 22.6025 14.7803 21.2095 15.659 20.3503L18.8409 17.2391C19.7195 16.3799 21.1442 16.3799 22.0229 17.2391L31.875 26.8721L52.9771 6.23906C53.8557 5.37995 55.2804 5.37995 56.1591 6.23906L59.341 9.35035C60.2196 10.2095 60.2196 11.6024 59.341 12.4616L33.466 37.7617C32.5872 38.6208 31.1626 38.6208 30.284 37.7616Z" fill="#39DA00"/>
</svg>
