<svg width="24" height="24" viewBox="0 0 24 24" fill="none" xmlns="http://www.w3.org/2000/svg">
<path d="M3.54785 20.9378H20.4479C20.5805 20.9378 20.7076 20.8851 20.8014 20.7913C20.8952 20.6976 20.9479 20.5704 20.9479 20.4378C20.9479 20.3052 20.8952 20.178 20.8014 20.0842C20.7076 19.9905 20.5805 19.9378 20.4479 19.9378H3.54785C3.41524 19.9378 3.28807 19.9905 3.1943 20.0842C3.10053 20.178 3.04785 20.3052 3.04785 20.4378C3.04785 20.5704 3.10053 20.6976 3.1943 20.7913C3.28807 20.8851 3.41524 20.9378 3.54785 20.9378ZM9.70985 17.1798C10.1323 17.0616 10.5177 16.8379 10.8299 16.5298L20.3699 6.98978C20.6966 6.66179 20.88 6.21771 20.88 5.75478C20.88 5.29184 20.6966 4.84777 20.3699 4.51978L19.4299 3.58978C19.0972 3.27203 18.6549 3.09473 18.1949 3.09473C17.7348 3.09473 17.2925 3.27203 16.9599 3.58978L7.41985 13.1198C7.11119 13.4299 6.89035 13.8164 6.77985 14.2398L6.03985 16.9998C6.00474 17.1259 6.00384 17.259 6.03723 17.3855C6.07062 17.5121 6.13711 17.6274 6.22985 17.7198C6.3714 17.8589 6.56137 17.9378 6.75985 17.9398L9.70985 17.1798ZM10.1199 15.8198C9.9355 16.0075 9.7041 16.1422 9.44985 16.2098L8.47985 16.4698L7.47985 15.4698L7.73985 14.4998C7.8098 14.2465 7.94416 14.0157 8.12985 13.8298L8.50985 13.4598L10.4999 15.4498L10.1199 15.8198ZM11.2099 14.7398L9.21985 12.7498L15.9499 6.01978L17.9399 8.00978L11.2099 14.7398ZM19.6599 6.28978L18.6499 7.29978L16.6599 5.30978L17.6699 4.28978C17.7393 4.21999 17.8219 4.16462 17.9129 4.12684C18.0038 4.08906 18.1014 4.06961 18.1999 4.06961C18.2983 4.06961 18.3959 4.08906 18.4868 4.12684C18.5778 4.16462 18.6604 4.21999 18.7299 4.28978L19.6599 5.22978C19.7993 5.37091 19.8776 5.56135 19.8776 5.75978C19.8776 5.95821 19.7993 6.14864 19.6599 6.28978Z" fill="#0300B4"/>
</svg>
