<svg width="17" height="18" viewBox="0 0 17 18" fill="none" xmlns="http://www.w3.org/2000/svg">
<path fill-rule="evenodd" clip-rule="evenodd" d="M8.26693 16.5169C8.26693 16.2738 8.17035 16.0407 7.99844 15.8687C7.82653 15.6968 7.59338 15.6003 7.35026 15.6003H2.76693V2.76693H7.35026C7.59338 2.76693 7.82653 2.67035 7.99844 2.49844C8.17035 2.32653 8.26693 2.09338 8.26693 1.85026C8.26693 1.60715 8.17035 1.37399 7.99844 1.20208C7.82653 1.03017 7.59338 0.933594 7.35026 0.933594H2.76693C2.2807 0.933594 1.81438 1.12675 1.47056 1.47056C1.12675 1.81438 0.933594 2.2807 0.933594 2.76693V15.6003C0.933594 16.0865 1.12675 16.5528 1.47056 16.8966C1.81438 17.2404 2.2807 17.4336 2.76693 17.4336H7.35026C7.59338 17.4336 7.82653 17.337 7.99844 17.1651C8.17035 16.9932 8.26693 16.76 8.26693 16.5169Z" fill="black"/>
<path d="M16.621 10.0195C16.7886 9.84904 16.8828 9.61963 16.8831 9.38055V9.37505C16.8827 9.13285 16.7861 8.90074 16.6146 8.72972L12.9479 5.06305C12.8633 4.9755 12.7622 4.90567 12.6503 4.85762C12.5385 4.80958 12.4182 4.7843 12.2965 4.78324C12.1748 4.78218 12.0541 4.80537 11.9414 4.85146C11.8288 4.89755 11.7264 4.96562 11.6404 5.05169C11.5543 5.13776 11.4862 5.2401 11.4401 5.35276C11.394 5.46541 11.3709 5.58612 11.3719 5.70784C11.373 5.82955 11.3983 5.94983 11.4463 6.06167C11.4943 6.17351 11.5642 6.27466 11.6517 6.35922L13.7536 8.46113H4.96647C4.72336 8.46113 4.4902 8.55771 4.31829 8.72962C4.14638 8.90153 4.0498 9.13469 4.0498 9.3778C4.0498 9.62092 4.14638 9.85407 4.31829 10.026C4.4902 10.1979 4.72336 10.2945 4.96647 10.2945H13.7536L11.6517 12.3964C11.4847 12.5693 11.3923 12.8008 11.3944 13.0412C11.3965 13.2815 11.4929 13.5114 11.6629 13.6814C11.8328 13.8513 12.0628 13.9477 12.3031 13.9498C12.5435 13.9519 12.775 13.8595 12.9479 13.6926L16.6146 10.0259L16.621 10.0195Z" fill="black"/>
</svg>
