<svg width="12" height="15" viewBox="0 0 12 15" fill="none" xmlns="http://www.w3.org/2000/svg">
<path d="M7.39375 2.75V1.95H6.59375V2.75H7.39375ZM7.39375 5.3H6.59375V6.59872L7.75364 6.01448L7.39375 5.3ZM10.0938 3.94H10.8938V2.64128L9.73386 3.22552L10.0938 3.94ZM10.0938 5.59L10.4515 6.30554L10.8938 6.08443V5.59H10.0938ZM7.39375 6.94L7.03598 6.22446L6.59375 6.44557V6.94H7.39375ZM7.39375 8.19H6.59375V9.48443L7.75152 8.90554L7.39375 8.19ZM10.0938 6.84H10.8938V5.54557L9.73598 6.12446L10.0938 6.84ZM10.0438 8.14L9.29707 7.85282L9.28721 7.87846L9.27913 7.90473L10.0438 8.14ZM9.92375 8.39L9.25811 7.94624L9.24481 7.96619L9.23273 7.9869L9.92375 8.39ZM9.75375 8.61L10.2889 9.20463L10.3046 9.19056L10.3194 9.17568L9.75375 8.61ZM9.53375 8.76L9.17598 8.04445L9.17331 8.0458L9.53375 8.76ZM7.39375 9.84L7.03331 9.1258L6.59375 9.34763V9.84H7.39375ZM7.39375 15V15.8H8.19375V15H7.39375ZM4.70375 15H3.90375V15.8H4.70375V15ZM4.70375 11.04H5.50375V9.74334L4.34488 10.325L4.70375 11.04ZM2.11375 12.34H1.31375V13.6367L2.47262 13.055L2.11375 12.34ZM2.11375 10.69L1.75488 9.97501L1.31375 10.1964V10.69H2.11375ZM4.70375 9.39L5.06263 10.105L5.50375 9.88357V9.39H4.70375ZM4.70375 8.13H5.50375V6.83334L4.34488 7.41501L4.70375 8.13ZM2.11375 9.43H1.31375V10.7267L2.47262 10.145L2.11375 9.43ZM2.27375 7.89L1.60417 7.4522L1.59817 7.46138L1.59242 7.47072L2.27375 7.89ZM2.68375 7.51L3.04152 8.22555L3.04435 8.22412L2.68375 7.51ZM4.70375 6.49L5.06435 7.20412L5.50375 6.98224V6.49H4.70375ZM4.70375 2.75H5.50375V1.95H4.70375V2.75ZM0.34375 2.75H-0.45625V3.55H0.34375V2.75ZM0.34375 0.539999V-0.260001H-0.45625V0.539999H0.34375ZM11.7438 0.539999H12.5438V-0.260001H11.7438V0.539999ZM11.7438 2.75V3.55H12.5438V2.75H11.7438ZM6.59375 2.75V5.3H8.19375V2.75H6.59375ZM7.75364 6.01448L10.4536 4.65448L9.73386 3.22552L7.03386 4.58552L7.75364 6.01448ZM9.29375 3.94V5.59H10.8938V3.94H9.29375ZM9.73598 4.87446L7.03598 6.22446L7.75152 7.65554L10.4515 6.30554L9.73598 4.87446ZM6.59375 6.94V8.19H8.19375V6.94H6.59375ZM7.75152 8.90554L10.4515 7.55554L9.73598 6.12446L7.03598 7.47446L7.75152 8.90554ZM9.29375 6.84V7.9H10.8938V6.84H9.29375ZM9.29375 7.9C9.29375 7.85288 9.30415 7.83442 9.29707 7.85282L10.7904 8.42718C10.85 8.27225 10.8938 8.09379 10.8938 7.9H9.29375ZM9.27913 7.90473C9.27654 7.91315 9.27114 7.9267 9.25811 7.94624L10.5894 8.83376C10.683 8.6933 10.7576 8.54019 10.8084 8.37527L9.27913 7.90473ZM9.23273 7.9869C9.22131 8.00648 9.20702 8.02536 9.18807 8.04431L10.3194 9.17568C10.4338 9.06131 10.5329 8.93352 10.6148 8.7931L9.23273 7.9869ZM9.21858 8.01536C9.20519 8.02741 9.1915 8.0367 9.17598 8.04446L9.89152 9.47554C10.036 9.4033 10.169 9.31259 10.2889 9.20463L9.21858 8.01536ZM9.17331 8.0458L7.03331 9.1258L7.75419 10.5542L9.89419 9.4742L9.17331 8.0458ZM6.59375 9.84V15H8.19375V9.84H6.59375ZM7.39375 14.2H4.70375V15.8H7.39375V14.2ZM5.50375 15V11.04H3.90375V15H5.50375ZM4.34488 10.325L1.75488 11.625L2.47262 13.055L5.06263 11.755L4.34488 10.325ZM2.91375 12.34V10.69H1.31375V12.34H2.91375ZM2.47262 11.405L5.06263 10.105L4.34488 8.67501L1.75488 9.97501L2.47262 11.405ZM5.50375 9.39V8.13H3.90375V9.39H5.50375ZM4.34488 7.41501L1.75488 8.71501L2.47262 10.145L5.06262 8.84499L4.34488 7.41501ZM2.91375 9.43V8.37H1.31375V9.43H2.91375ZM2.91375 8.37C2.91375 8.39445 2.90922 8.40341 2.9127 8.39298C2.91645 8.38171 2.92754 8.35403 2.95508 8.30928L1.59242 7.47072C1.437 7.72328 1.31375 8.02852 1.31375 8.37H2.91375ZM2.94333 8.3278C2.99153 8.25408 3.02702 8.23279 3.04152 8.22554L2.32598 6.79446C2.02048 6.94721 1.78264 7.17925 1.60417 7.4522L2.94333 8.3278ZM3.04435 8.22412L5.06435 7.20412L4.34315 5.77588L2.32315 6.79588L3.04435 8.22412ZM5.50375 6.49V2.75H3.90375V6.49H5.50375ZM4.70375 1.95H0.34375V3.55H4.70375V1.95ZM1.14375 2.75V0.539999H-0.45625V2.75H1.14375ZM0.34375 1.34H11.7438V-0.260001H0.34375V1.34ZM10.9438 0.539999V2.75H12.5438V0.539999H10.9438ZM11.7438 1.95H7.39375V3.55H11.7438V1.95Z" fill="black"/>
</svg>
