<svg width="22" height="22" viewBox="0 0 22 22" fill="none" xmlns="http://www.w3.org/2000/svg">
<g opacity="0.5" clip-path="url(#clip0_1574_2580)">
<path d="M1.00497 5.60981L2.28784 4.54766H2.28226L5.83628 1.60106C5.83638 1.60098 5.83648 1.6009 5.83658 1.60081C6.62831 0.946219 7.57539 0.6 8.53621 0.6L20.7775 0.6C21.0577 0.6 21.3998 0.877435 21.3998 1.375V4.125C21.3998 4.62256 21.0577 4.9 20.7775 4.9H19.372H19.1414L18.9701 5.05447L17.2564 6.60024C17.2562 6.60041 17.256 6.60059 17.2558 6.60076C16.4927 7.28508 15.5565 7.65 14.6015 7.65L8.55531 7.65C8.27512 7.65 7.93309 7.37257 7.93309 6.875C7.93309 6.37743 8.27512 6.1 8.55531 6.1H11.6109C12.3428 6.1 12.822 5.45361 12.822 4.8125C12.822 4.17139 12.3428 3.525 11.6109 3.525L7.00462 3.525H6.78827L6.6217 3.66307L2.0501 7.45269C1.6638 7.77253 1.11703 7.70611 0.799776 7.22114C0.457338 6.69768 0.573122 5.96736 1.00497 5.60981ZM14.6053 6.1H14.6397V5.5V4.9H14.6053V5.5V6.1Z" stroke="black" stroke-width="1.2"/>
<path d="M11.8363 13.65V15.18L13.4563 14.364V15.354L11.8363 16.164V16.914L13.4563 16.104V16.74C13.4563 16.784 13.4463 16.832 13.4263 16.884C13.4103 16.936 13.3863 16.986 13.3542 17.034C13.3263 17.082 13.2923 17.126 13.2523 17.166C13.2123 17.202 13.1683 17.232 13.1203 17.256L11.8363 17.904V21H10.2223V18.624L8.66825 19.404V18.414L10.2223 17.634V16.878L8.66825 17.658V17.022C8.66825 16.934 8.70025 16.838 8.76425 16.734C8.83225 16.63 8.91425 16.554 9.01025 16.506L10.2223 15.894V13.65H7.60625V12.324H14.4463V13.65H11.8363Z" fill="black"/>
</g>
<defs>
<clipPath id="clip0_1574_2580">
<rect width="22" height="22" fill="white"/>
</clipPath>
</defs>
</svg>
