<svg width="26" height="26" viewBox="0 0 26 26" fill="none" xmlns="http://www.w3.org/2000/svg">
<path d="M14.2365 11.7321L14.2372 11.7327C14.5821 12.0632 14.75 12.4888 14.75 12.9688V18C14.75 18.4798 14.5825 18.9058 14.2448 19.2436C13.9066 19.5818 13.4803 19.75 13 19.75C12.527 19.75 12.1037 19.5924 11.7647 19.2679L14.2365 11.7321ZM14.2365 11.7321C13.8969 11.4078 13.4733 11.25 13 11.25M14.2365 11.7321L13 11.25M8.32299 24.0559L8.3232 24.056C9.77871 24.6844 11.336 25 13 25C14.664 25 16.2213 24.6844 17.6768 24.056L17.677 24.0559C19.1422 23.424 20.4117 22.5687 21.4902 21.4902C22.5687 20.4117 23.424 19.1422 24.0559 17.677L24.056 17.6768C24.6844 16.2213 25 14.664 25 13C25 11.336 24.6844 9.77871 24.056 8.3232L24.0559 8.32299C23.424 6.8578 22.5687 5.58827 21.4902 4.5098C20.4117 3.43135 19.1422 2.57555 17.677 1.94288L8.32299 24.0559ZM8.32299 24.0559C6.8578 23.424 5.58826 22.5687 4.5098 21.4902C3.43134 20.4117 2.57597 19.1422 1.94413 17.677L1.94404 17.6768M8.32299 24.0559L1.94404 17.6768M1.94404 17.6768C1.31558 16.2213 1 14.664 1 13C1 11.336 1.31558 9.77871 1.94404 8.3232L1.94413 8.32299M1.94404 17.6768L1.94413 8.32299M1.94413 8.32299C2.57597 6.8578 3.43134 5.58827 4.5098 4.5098M1.94413 8.32299L4.5098 4.5098M13 11.25C12.5202 11.25 12.0942 11.4175 11.7564 11.7552M13 11.25L11.7564 11.7552M11.7564 11.7552C11.4182 12.0934 11.25 12.5197 11.25 13M11.7564 11.7552L11.25 13M11.25 13V18.0313M11.25 13V18.0313M11.25 18.0313C11.25 18.5116 11.4186 18.9372 11.7644 19.2676L11.25 18.0313ZM4.5098 4.5098C5.58826 3.43135 6.8578 2.57555 8.32299 1.94288L4.5098 4.5098ZM14.2454 6.75581L14.2442 6.75458C13.9058 6.41742 13.4798 6.25 13 6.25C12.5202 6.25 12.0942 6.41746 11.7564 6.7552C11.4182 7.09341 11.25 7.51965 11.25 8C11.25 8.48008 11.4181 8.90603 11.7564 9.24355C12.094 9.58194 12.5199 9.75 13 9.75C13.4803 9.75 13.9066 9.58177 14.2448 9.24355C14.5825 8.90581 14.75 8.47982 14.75 8C14.75 7.5202 14.5826 7.09415 14.2454 6.75581ZM8.3232 1.94279C9.7787 1.31516 11.3359 1 13 1C14.6641 1 16.2213 1.31516 17.6768 1.94279H8.3232Z" stroke="#0300B4"/>
</svg>
