<svg width="22" height="22" viewBox="0 0 22 22" fill="none" xmlns="http://www.w3.org/2000/svg">
<g clip-path="url(#clip0_1571_4540)">
<path d="M20.9948 16.3902L19.7119 17.4523H19.7175L16.1635 20.3989C16.1634 20.399 16.1633 20.3991 16.1632 20.3992C15.3714 21.0538 14.4244 21.4 13.4635 21.4H1.22222C0.942036 21.4 0.6 21.1226 0.6 20.625V17.875C0.6 17.3774 0.942035 17.1 1.22222 17.1H2.62778H2.8584L3.02965 16.9455L4.74335 15.3998C4.74355 15.3996 4.74374 15.3994 4.74393 15.3992C5.50708 14.7149 6.44321 14.35 7.39826 14.35H13.4444C13.7246 14.35 14.0667 14.6274 14.0667 15.125C14.0667 15.6226 13.7246 15.9 13.4444 15.9H10.3889C9.65692 15.9 9.17778 16.5464 9.17778 17.1875C9.17778 17.8286 9.65692 18.475 10.3889 18.475H14.9951H15.2115L15.3781 18.3369L19.9497 14.5473C20.336 14.2275 20.8827 14.2939 21.2 14.7789C21.5424 15.3023 21.4266 16.0326 20.9948 16.3902ZM7.39444 15.9H7.36007V16.5V17.1H7.39444V16.5V15.9Z" stroke="black" stroke-width="1.2"/>
<path d="M11.8363 2.65V4.18L13.4563 3.364V4.354L11.8363 5.164V5.914L13.4563 5.104V5.74C13.4563 5.784 13.4463 5.832 13.4263 5.884C13.4103 5.936 13.3863 5.986 13.3542 6.034C13.3263 6.082 13.2923 6.126 13.2523 6.166C13.2123 6.202 13.1683 6.232 13.1203 6.256L11.8363 6.904V10H10.2223V7.624L8.66825 8.404V7.414L10.2223 6.634V5.878L8.66825 6.658V6.022C8.66825 5.934 8.70025 5.838 8.76425 5.734C8.83225 5.63 8.91425 5.554 9.01025 5.506L10.2223 4.894V2.65H7.60625V1.324H14.4463V2.65H11.8363Z" fill="black"/>
</g>
<defs>
<clipPath id="clip0_1571_4540">
<rect width="22" height="22" fill="white"/>
</clipPath>
</defs>
</svg>
