<svg width="26" height="26" viewBox="0 0 26 26" fill="none" xmlns="http://www.w3.org/2000/svg">
<path d="M23.7451 17.5384C23.0029 19.2937 21.8421 20.8403 20.364 22.0433C18.8859 23.2462 17.1357 24.0688 15.2663 24.439C13.3969 24.8092 11.4653 24.7159 9.64032 24.1672C7.81533 23.6184 6.15254 22.631 4.79733 21.2912C3.44213 19.9514 2.43576 18.3 1.86622 16.4814C1.29668 14.6628 1.1813 12.7323 1.53018 10.8588C1.87905 8.98533 2.68156 7.22582 3.86753 5.73413C5.05351 4.24243 6.58684 3.06396 8.33348 2.30176" stroke="black" stroke-width="2" stroke-linecap="round" stroke-linejoin="round"/>
<path d="M24.6667 12.9997C24.6667 11.4676 24.3649 9.9505 23.7786 8.53503C23.1923 7.11957 22.3329 5.83345 21.2496 4.7501C20.1662 3.66675 18.8801 2.80738 17.4646 2.22108C16.0492 1.63478 14.5321 1.33301 13 1.33301V12.9997H24.6667Z" stroke="black" stroke-width="2" stroke-linecap="round" stroke-linejoin="round"/>
</svg>
