<svg width="22" height="23" viewBox="0 0 22 23" fill="none" xmlns="http://www.w3.org/2000/svg">
<g clip-path="url(#clip0_3571_1567)">
<path d="M1.00619 6.09809L2.28906 5.03594H2.28348L5.8375 2.08934C5.8376 2.08926 5.8377 2.08918 5.8378 2.0891C6.62953 1.4345 7.57661 1.08828 8.53743 1.08828L20.7788 1.08828C21.0589 1.08828 21.401 1.36572 21.401 1.86328V4.61328C21.401 5.11085 21.0589 5.38828 20.7788 5.38828H19.3732H19.1426L18.9713 5.54275L17.2576 7.08852C17.2574 7.08869 17.2572 7.08887 17.257 7.08904C16.4939 7.77336 15.5578 8.13828 14.6027 8.13828L8.55653 8.13828C8.27635 8.13828 7.93431 7.86085 7.93431 7.36328C7.93431 6.86572 8.27635 6.58828 8.55653 6.58828H11.6121C12.3441 6.58828 12.8232 5.94189 12.8232 5.30078C12.8232 4.65967 12.3441 4.01328 11.6121 4.01328L7.00584 4.01328H6.78949L6.62292 4.15135L2.05132 7.94097C1.66502 8.26081 1.11825 8.19439 0.800997 7.70942C0.458559 7.18596 0.574343 6.45564 1.00619 6.09809ZM14.6065 6.58828H14.6409V5.98828V5.38828H14.6065V5.98828V6.58828Z" stroke="black" stroke-width="1.2"/>
<path d="M11.8372 14.1383V15.6683L13.4572 14.8523V15.8423L11.8372 16.6523V17.4023L13.4572 16.5923V17.2283C13.4572 17.2723 13.4472 17.3203 13.4272 17.3723C13.4112 17.4243 13.3872 17.4743 13.3552 17.5223C13.3272 17.5703 13.2932 17.6143 13.2532 17.6543C13.2132 17.6903 13.1692 17.7203 13.1212 17.7443L11.8372 18.3923V21.4883H10.2232V19.1123L8.66923 19.8923V18.9023L10.2232 18.1223V17.3663L8.66923 18.1463V17.5103C8.66923 17.4223 8.70123 17.3263 8.76523 17.2223C8.83323 17.1183 8.91523 17.0423 9.01123 16.9943L10.2232 16.3823V14.1383H7.60723V12.8123H14.4472V14.1383H11.8372Z" fill="black"/>
</g>
<defs>
<clipPath id="clip0_3571_1567">
<rect width="22" height="22" fill="white" transform="translate(0.000976562 0.488281)"/>
</clipPath>
</defs>
</svg>
