<svg width="20" height="21" viewBox="0 0 20 21" fill="none" xmlns="http://www.w3.org/2000/svg">
<path d="M14.75 19.16L12 16.16L13.16 15L14.75 16.59L18.34 13L19.5 14.41L14.75 19.16ZM7 19H9.8C10.04 19.41 10.33 19.79 10.65 20.13C10.29 20.66 9.69 21 9 21C8.46957 21 7.96086 20.7893 7.58579 20.4142C7.21071 20.0391 7 19.5304 7 19ZM0 18V17L2 15V9C1.99961 7.49223 2.48607 6.02464 3.38698 4.81562C4.28788 3.60661 5.55509 2.72079 7 2.29V2C7 1.46957 7.21071 0.960859 7.58579 0.585786C7.96086 0.210714 8.46957 0 9 0C9.53043 0 10.0391 0.210714 10.4142 0.585786C10.7893 0.960859 11 1.46957 11 2V2.29C12.4449 2.72079 13.7121 3.60661 14.613 4.81562C15.5139 6.02464 16.0004 7.49223 16 9V10.08L15 10L14 10.08V9C14 6.24 11.76 4 9 4C6.24 4 4 6.24 4 9V16H9C9 16.7 9.12 17.37 9.34 18H0Z" fill="black"/>
</svg>
