<?xml version="1.0" encoding="utf-8"?>
<!-- Generator: Adobe Illustrator 19.0.0, SVG Export Plug-In . SVG Version: 6.00 Build 0)  -->
<svg xmlns="http://www.w3.org/2000/svg" width="24" height="24" viewBox="0 0 24 24" fill="none">
<path d="M7.503 13.002C7.37039 13.002 7.24321 13.0547 7.14945 13.1484C7.05568 13.2422 7.003 13.3694 7.003 13.502V16.502C7.003 16.6346 7.05568 16.7618 7.14945 16.8556C7.24321 16.9493 7.37039 17.002 7.503 17.002C7.63561 17.002 7.76279 16.9493 7.85655 16.8556C7.95032 16.7618 8.003 16.6346 8.003 16.502V16.002H8.5C8.89782 16.002 9.27936 15.844 9.56066 15.5627C9.84196 15.2814 10 14.8998 10 14.502C10 14.1042 9.84196 13.7226 9.56066 13.4413C9.27936 13.16 8.89782 13.002 8.5 13.002H7.503ZM8.5 15.002H8.003V14.002H8.5C8.63261 14.002 8.75979 14.0547 8.85355 14.1484C8.94732 14.2422 9 14.3694 9 14.502C9 14.6346 8.94732 14.7618 8.85355 14.8556C8.75979 14.9493 8.63261 15.002 8.5 15.002ZM14.998 13.502C14.998 13.3694 15.0507 13.2422 15.1444 13.1484C15.2382 13.0547 15.3654 13.002 15.498 13.002H17.003C17.1356 13.002 17.2628 13.0547 17.3566 13.1484C17.4503 13.2422 17.503 13.3694 17.503 13.502C17.503 13.6346 17.4503 13.7618 17.3566 13.8556C17.2628 13.9493 17.1356 14.002 17.003 14.002H15.997L15.996 15.004H17.003C17.1356 15.004 17.2628 15.0567 17.3566 15.1504C17.4503 15.2442 17.503 15.3714 17.503 15.504C17.503 15.6366 17.4503 15.7638 17.3566 15.8576C17.2628 15.9513 17.1356 16.004 17.003 16.004H15.996L15.998 16.501C15.9981 16.5667 15.9853 16.6317 15.9603 16.6924C15.9353 16.7531 15.8986 16.8083 15.8523 16.8548C15.7587 16.9488 15.6316 17.0017 15.499 17.002C15.3664 17.0023 15.2391 16.9498 15.1452 16.8563C15.0512 16.7627 14.9983 16.6356 14.998 16.503L14.995 15.505V15.503L14.998 13.502ZM11.5 13.002C11.3674 13.002 11.2402 13.0547 11.1464 13.1484C11.0527 13.2422 11 13.3694 11 13.502V16.502C11 16.6346 11.0527 16.7618 11.1464 16.8556C11.2402 16.9493 11.3674 17.002 11.5 17.002H11.998C12.5284 17.002 13.0371 16.7913 13.4122 16.4162C13.7873 16.0411 13.998 15.5324 13.998 15.002C13.998 14.4716 13.7873 13.9629 13.4122 13.5878C13.0371 13.2127 12.5284 13.002 11.998 13.002H11.5ZM12 16.002V14.002C12.2652 14.002 12.5196 14.1074 12.7071 14.2949C12.8946 14.4824 13 14.7368 13 15.002C13 15.2672 12.8946 15.5216 12.7071 15.7091C12.5196 15.8966 12.2652 16.002 12 16.002ZM20 20V18.836C20.591 18.555 21 17.952 21 17.254V12.75C21 12.052 20.591 11.45 20 11.168V9.828C19.9999 9.29761 19.7891 8.78899 19.414 8.414L13.585 2.586C13.5695 2.57163 13.5532 2.55827 13.536 2.546C13.5236 2.53645 13.5116 2.52644 13.5 2.516C13.4312 2.45107 13.358 2.39093 13.281 2.336C13.2554 2.31948 13.2287 2.30478 13.201 2.292L13.153 2.268L13.103 2.239C13.049 2.208 12.994 2.176 12.937 2.152C12.7379 2.07246 12.5271 2.02585 12.313 2.014C12.2932 2.01271 12.2735 2.01038 12.254 2.007C12.2269 2.00281 12.1995 2.00047 12.172 2H6C5.46957 2 4.96086 2.21071 4.58579 2.58579C4.21071 2.96086 4 3.46957 4 4V11.168C3.409 11.449 3 12.052 3 12.75V17.254C3 17.952 3.409 18.554 4 18.836V20C4 20.5304 4.21071 21.0391 4.58579 21.4142C4.96086 21.7893 5.46957 22 6 22H18C18.5304 22 19.0391 21.7893 19.4142 21.4142C19.7893 21.0391 20 20.5304 20 20ZM18 20.5H6C5.86739 20.5 5.74021 20.4473 5.64645 20.3536C5.55268 20.2598 5.5 20.1326 5.5 20V19.004H18.5V20C18.5 20.1326 18.4473 20.2598 18.3536 20.3536C18.2598 20.4473 18.1326 20.5 18 20.5ZM18.5 10V11H5.5V4C5.5 3.86739 5.55268 3.74021 5.64645 3.64645C5.74021 3.55268 5.86739 3.5 6 3.5H12V8C12 8.53043 12.2107 9.03914 12.5858 9.41421C12.9609 9.78929 13.4696 10 14 10H18.5ZM17.378 8.5H14C13.8674 8.5 13.7402 8.44732 13.6464 8.35355C13.5527 8.25979 13.5 8.13261 13.5 8V4.621L17.378 8.5ZM4.75 12.5H19.25C19.3163 12.5 19.3799 12.5263 19.4268 12.5732C19.4737 12.6201 19.5 12.6837 19.5 12.75V17.254C19.5 17.3203 19.4737 17.3839 19.4268 17.4308C19.3799 17.4777 19.3163 17.504 19.25 17.504H4.75C4.6837 17.504 4.62011 17.4777 4.57322 17.4308C4.52634 17.3839 4.5 17.3203 4.5 17.254V12.75C4.5 12.6837 4.52634 12.6201 4.57322 12.5732C4.62011 12.5263 4.6837 12.5 4.75 12.5Z" fill="black"/>
</svg>