<svg width="182" height="44" viewBox="0 0 182 44" fill="none" xmlns="http://www.w3.org/2000/svg">
<path d="M49.664 38V12.44H66.836V16.796H54.632V23.384H64.784V27.416H54.632V38H49.664ZM68.9496 30.944V19.136H73.7736V29.9C73.7736 31.34 74.0376 32.432 74.5656 33.176C75.0936 33.896 75.8736 34.256 76.9056 34.256C77.5296 34.256 78.1416 34.136 78.7416 33.896C79.3656 33.632 79.9296 33.248 80.4336 32.744C80.9616 32.24 81.4056 31.604 81.7656 30.836V19.136H86.5896V32.6C86.5896 33.104 86.6736 33.464 86.8416 33.68C87.0336 33.896 87.3336 34.028 87.7416 34.076V38C87.2616 38.072 86.8536 38.12 86.5176 38.144C86.2056 38.192 85.9176 38.216 85.6536 38.216C84.7896 38.216 84.0816 38.024 83.5296 37.64C83.0016 37.232 82.6896 36.68 82.5936 35.984L82.4856 34.472C81.6456 35.744 80.5656 36.716 79.2456 37.388C77.9256 38.036 76.4736 38.36 74.8896 38.36C72.9456 38.36 71.4696 37.736 70.4616 36.488C69.4536 35.216 68.9496 33.368 68.9496 30.944ZM108.916 38H104.092V27.416C104.092 25.904 103.828 24.8 103.3 24.104C102.772 23.408 102.04 23.06 101.104 23.06C100.456 23.06 99.7955 23.228 99.1235 23.564C98.4755 23.9 97.8875 24.368 97.3595 24.968C96.8315 25.544 96.4475 26.216 96.2075 26.984V38H91.3835V19.136H95.7395V22.628C96.2195 21.812 96.8315 21.128 97.5755 20.576C98.3195 20 99.1715 19.568 100.132 19.28C101.116 18.968 102.148 18.812 103.228 18.812C104.404 18.812 105.364 19.028 106.108 19.46C106.876 19.868 107.452 20.432 107.836 21.152C108.244 21.848 108.52 22.64 108.664 23.528C108.832 24.416 108.916 25.316 108.916 26.228V38ZM111.958 28.568C111.958 26.744 112.318 25.1 113.038 23.636C113.758 22.148 114.754 20.972 116.026 20.108C117.298 19.244 118.75 18.812 120.382 18.812C121.774 18.812 123.022 19.16 124.126 19.856C125.254 20.528 126.13 21.392 126.754 22.448V11.72H131.578V32.6C131.578 33.104 131.662 33.464 131.83 33.68C131.998 33.896 132.286 34.028 132.694 34.076V38C131.854 38.168 131.17 38.252 130.642 38.252C129.778 38.252 129.058 38.036 128.482 37.604C127.93 37.172 127.618 36.608 127.546 35.912L127.474 34.724C126.778 35.9 125.83 36.8 124.63 37.424C123.454 38.048 122.218 38.36 120.922 38.36C119.626 38.36 118.426 38.108 117.322 37.604C116.242 37.1 115.294 36.404 114.478 35.516C113.686 34.628 113.062 33.596 112.606 32.42C112.174 31.22 111.958 29.936 111.958 28.568ZM126.754 31.088V26.588C126.514 25.892 126.13 25.268 125.602 24.716C125.074 24.164 124.486 23.732 123.838 23.42C123.19 23.084 122.542 22.916 121.894 22.916C121.15 22.916 120.478 23.072 119.878 23.384C119.278 23.696 118.75 24.116 118.294 24.644C117.862 25.172 117.526 25.784 117.286 26.48C117.07 27.176 116.962 27.908 116.962 28.676C116.962 29.444 117.082 30.176 117.322 30.872C117.586 31.544 117.958 32.132 118.438 32.636C118.918 33.14 119.47 33.536 120.094 33.824C120.742 34.112 121.438 34.256 122.182 34.256C122.638 34.256 123.094 34.184 123.55 34.04C124.03 33.872 124.474 33.656 124.882 33.392C125.314 33.104 125.686 32.768 125.998 32.384C126.334 31.976 126.586 31.544 126.754 31.088Z" fill="white"/>
<path d="M157.976 38V19.504L149.752 33.872H148.344L140.088 19.504V38H137.848V15.28H140.152L149.016 30.832L157.944 15.28H160.216V38H157.976ZM172.413 38.32C171.218 38.32 170.109 38.096 169.085 37.648C168.061 37.1787 167.175 36.5493 166.429 35.76C165.682 34.9493 165.095 34.0213 164.669 32.976C164.263 31.9307 164.061 30.8107 164.061 29.616C164.061 28.0587 164.413 26.6293 165.117 25.328C165.842 24.0267 166.834 22.992 168.093 22.224C169.351 21.4347 170.781 21.04 172.381 21.04C174.023 21.04 175.453 21.4347 176.669 22.224C177.906 23.0133 178.877 24.0587 179.581 25.36C180.285 26.64 180.637 28.048 180.637 29.584C180.637 29.7547 180.637 29.9253 180.637 30.096C180.637 30.2453 180.626 30.3627 180.605 30.448H166.333C166.439 31.6427 166.77 32.7093 167.325 33.648C167.901 34.5653 168.637 35.3013 169.533 35.856C170.45 36.3893 171.442 36.656 172.509 36.656C173.597 36.656 174.621 36.3787 175.581 35.824C176.562 35.2693 177.245 34.544 177.629 33.648L179.517 34.16C179.175 34.9493 178.653 35.664 177.949 36.304C177.245 36.944 176.413 37.4453 175.453 37.808C174.514 38.1493 173.501 38.32 172.413 38.32ZM166.269 28.88H178.589C178.503 27.664 178.173 26.5973 177.597 25.68C177.042 24.7627 176.306 24.048 175.389 23.536C174.493 23.0027 173.501 22.736 172.413 22.736C171.325 22.736 170.333 23.0027 169.437 23.536C168.541 24.048 167.805 24.7733 167.229 25.712C166.674 26.6293 166.354 27.6853 166.269 28.88Z" fill="white" fill-opacity="0.5"/>
<g filter="url(#filter0_d_1278_3999)">
<rect x="2" width="38" height="10" fill="#FF0000"/>
<rect x="30" y="38" width="24" height="10" transform="rotate(-90 30 38)" fill="#FF0000"/>
<path d="M2 28.0712L26 14V23.9777L14 30.7575L2 38V28.0712Z" fill="#0300B4"/>
</g>
<defs>
<filter id="filter0_d_1278_3999" x="0" y="0" width="42" height="42" filterUnits="userSpaceOnUse" color-interpolation-filters="sRGB">
<feFlood flood-opacity="0" result="BackgroundImageFix"/>
<feColorMatrix in="SourceAlpha" type="matrix" values="0 0 0 0 0 0 0 0 0 0 0 0 0 0 0 0 0 0 127 0" result="hardAlpha"/>
<feOffset dy="2"/>
<feGaussianBlur stdDeviation="1"/>
<feComposite in2="hardAlpha" operator="out"/>
<feColorMatrix type="matrix" values="0 0 0 0 0 0 0 0 0 0 0 0 0 0 0 0 0 0 0.25 0"/>
<feBlend mode="normal" in2="BackgroundImageFix" result="effect1_dropShadow_1278_3999"/>
<feBlend mode="normal" in="SourceGraphic" in2="effect1_dropShadow_1278_3999" result="shape"/>
</filter>
</defs>
</svg>
