<svg width="60" height="72" viewBox="0 0 60 72" fill="none" xmlns="http://www.w3.org/2000/svg">
<g clip-path="url(#clip0_5940_2044)">
<path fill-rule="evenodd" clip-rule="evenodd" d="M3.6188 6.65498H12.2949L11.9176 10.0823H6.08241C4.44867 10.0823 3.02892 11.4642 3.02892 13.0513V62.8666C3.02892 64.4453 4.4053 65.8385 6.08241 65.8385H32.5041C32.9422 66.9026 33.4959 67.9092 34.1479 68.844H3.6188C1.64241 68.844 0 67.2625 0 65.3268V10.1737C0 8.23789 1.62795 6.65498 3.6188 6.65498ZM16.3706 27.902H10.7451V19.3576H13.5586V25.7146H16.3706V27.902ZM17.1441 23.6368C17.1441 22.0778 17.4434 20.9405 18.0434 20.225C18.6434 19.5095 19.7263 19.151 21.292 19.151C22.8564 19.151 23.9393 19.5095 24.5407 20.225C25.1393 20.9405 25.44 22.0778 25.44 23.6368C25.44 24.4114 25.3764 25.0623 25.2506 25.5909C25.1234 26.1195 24.9051 26.5805 24.5957 26.9728C24.2877 27.3636 23.8598 27.6518 23.3161 27.8331C22.7725 28.0159 22.0973 28.1072 21.292 28.1072C20.4853 28.1072 19.8101 28.0159 19.2665 27.8331C18.7229 27.6518 18.2964 27.3636 17.987 26.9728C17.6776 26.5805 17.4593 26.1195 17.3335 25.5909C17.2063 25.0623 17.1441 24.4114 17.1441 23.6368ZM20.1672 22.2142V25.7694H21.334C21.7186 25.7694 21.9961 25.7258 22.1696 25.6387C22.3446 25.5529 22.4313 25.3533 22.4313 25.044V21.4902H21.2501C20.8742 21.4902 20.5995 21.5338 20.4275 21.6195C20.254 21.7067 20.1672 21.9035 20.1672 22.2142ZM28.9417 27.902H25.9749L28.252 19.3576H32.5966L34.8752 27.902H31.9084L31.5846 26.5482H29.2641L28.9417 27.902ZM30.0463 21.7981L29.5822 24.5576H31.252L30.8039 21.7981H30.0463ZM40.9923 27.902L38.8395 24.8669C38.7658 24.7671 38.7181 24.5478 38.6993 24.2104H38.6443V27.902H35.8308V19.3576H38.4752L40.6265 22.3927C40.7017 22.4925 40.748 22.7104 40.7667 23.0492H40.8231V19.3576H43.6352V27.902H40.9923ZM51.3426 44.5577V13.0513C51.3426 11.422 49.9214 10.0823 48.2877 10.0823H42.0853V6.65498H50.7614C52.7523 6.65498 54.3802 8.25476 54.3802 10.1737V45.5685C53.4046 45.1347 52.3871 44.7961 51.3426 44.5577ZM10.8419 59.0935C10.1407 59.0935 9.56964 58.5396 9.56964 57.8564C9.56964 57.1746 10.1407 56.6207 10.8419 56.6207H31.7133C31.534 57.4248 31.4198 58.25 31.372 59.0935H10.8419ZM10.8419 51.6204C10.1407 51.6204 9.56964 51.0665 9.56964 50.3833C9.56964 49.7015 10.1407 49.1476 10.8419 49.1476H35.747C35.0144 49.9075 34.3607 50.7358 33.7952 51.6204H10.8419ZM10.8419 44.1472C10.1407 44.1472 9.56964 43.5933 9.56964 42.9115C9.56964 42.2297 10.1407 41.6758 10.8419 41.6758H36.7417C37.4429 41.6758 38.0125 42.2297 38.0125 42.9115C38.0125 43.5933 37.4429 44.1472 36.7417 44.1472H10.8419ZM10.8419 36.6741C10.1407 36.6741 9.56964 36.1202 9.56964 35.4384C9.56964 34.7566 10.1407 34.2027 10.8419 34.2027H43.5398C44.241 34.2027 44.8106 34.7566 44.8106 35.4384C44.8106 36.1202 44.241 36.6741 43.5398 36.6741H10.8419ZM17.306 4.91321H21.4063C21.7518 2.14241 24.052 0 26.841 0C29.6111 0 31.9012 2.1143 32.2713 4.85558L37.0699 4.91321C37.4053 4.91321 37.6742 5.17469 37.6742 5.49942V11.8001C37.6742 12.1249 37.4053 12.3864 37.0699 12.3864H17.3104C16.9836 12.3864 16.7075 12.1249 16.7075 11.8001V5.49942C16.7017 5.17469 16.9706 4.91321 17.306 4.91321ZM24.5957 7.32273C24.9658 7.81615 25.4964 8.30396 26.0588 8.55419C26.5186 8.68915 27.0202 8.70039 27.4843 8.57668C28.2159 8.25195 28.8839 7.46893 29.1947 6.81243C29.2294 6.62686 29.2554 6.43568 29.2554 6.22621C29.2554 4.8373 28.161 3.71127 26.8106 3.71127C25.4617 3.71127 24.3672 4.8373 24.3672 6.22621C24.3759 6.64373 24.4511 7.01486 24.5957 7.32273Z" fill="black"/>
<path fill-rule="evenodd" clip-rule="evenodd" d="M47.627 47.9375C54.4626 47.9375 60 53.3259 60 59.9682C60 66.6147 54.4598 72.0003 47.627 72.0003C40.7913 72.0003 35.254 66.6119 35.254 59.9682C35.254 53.3216 40.7942 47.9375 47.627 47.9375Z" fill="#00A912"/>
<path fill-rule="evenodd" clip-rule="evenodd" d="M43.787 58.0563L45.9802 60.0708L51.1634 54.9622C51.5928 54.539 51.8617 54.1988 52.3908 54.7288L54.1099 56.4411C54.6737 56.9823 54.6448 57.3014 54.1128 57.8061L46.9605 64.648C45.8385 65.7178 46.0337 65.7825 44.8959 64.6846L40.894 60.8159C40.6569 60.567 40.6829 60.314 40.9417 60.0652L42.9369 58.0535C43.239 57.7442 43.4805 57.7709 43.787 58.0563Z" fill="white"/>
</g>
<defs>
<clipPath id="clip0_5940_2044">
<rect width="60" height="72" fill="white"/>
</clipPath>
</defs>
</svg>
