<svg width="60" height="72" viewBox="0 0 60 72" fill="none" xmlns="http://www.w3.org/2000/svg">
<g clip-path="url(#clip0_5949_2064)">
<path fill-rule="evenodd" clip-rule="evenodd" d="M13.3174 5.54409H19.9232C20.3112 2.41745 22.8788 0 25.9933 0C29.0893 0 31.6425 2.38508 32.0563 5.47936L38.7523 5.54409C39.126 5.54409 39.4253 5.83959 39.4253 6.20685V13.5028C39.4253 13.8687 39.126 14.1642 38.7523 14.1642H13.3246C12.958 14.1642 12.6501 13.8687 12.6501 13.5028V6.20685C12.6489 6.12007 12.6652 6.03391 12.6982 5.9534C12.7312 5.87289 12.7802 5.79965 12.8423 5.73796C12.9044 5.67626 12.9785 5.62734 13.06 5.59405C13.1416 5.56077 13.2291 5.54378 13.3174 5.54409ZM45.1045 42.7247C53.3341 42.7247 60 49.2791 60 57.3616C60 65.4484 53.3298 72 45.1045 72C36.8749 72 30.2091 65.4456 30.2091 57.3616C30.2091 49.2749 36.8792 42.7247 45.1045 42.7247ZM44.4601 62.3724L39.1933 63.7528L39.9523 58.1975L44.4601 62.3724ZM41.1136 56.9353L46.2859 51.1379C46.3733 51.038 46.5007 50.9789 46.6339 50.9747C46.7169 50.9747 46.7986 50.9902 46.873 51.0296L50.8854 54.6135C50.9656 54.6867 51.0129 54.788 51.0158 54.8963C51.0186 55.0159 50.9671 55.1356 50.874 55.2144L45.6072 61.1102L41.1064 56.9353H41.1136ZM18.978 37.7927C17.957 37.7927 17.1279 36.978 17.1279 35.9733C17.1279 34.97 17.957 34.1553 18.978 34.1553H39.4296C40.452 34.1553 41.2811 34.97 41.2811 35.9733C41.2811 36.978 40.452 37.7927 39.4296 37.7927H18.978ZM12.8162 33.9428C13.959 33.9428 14.884 34.8518 14.884 35.9747C14.884 37.0976 13.959 38.0066 12.8162 38.0066C11.6749 38.0066 10.7484 37.0976 10.7484 35.9747C10.7484 34.8518 11.6749 33.9428 12.8162 33.9428ZM12.8162 45.0056C13.959 45.0056 14.884 45.916 14.884 47.0375C14.884 48.159 13.959 49.0694 12.8162 49.0694C11.6749 49.0694 10.7484 48.159 10.7484 47.0375C10.7484 45.916 11.6749 45.0056 12.8162 45.0056ZM18.9795 48.8555C17.9585 48.8555 17.1279 48.0408 17.1279 47.0361C17.1279 46.0328 17.9585 45.2181 18.9795 45.2181H30.5728C29.6077 46.332 28.7782 47.5527 28.1012 48.8555H18.9795ZM12.8162 22.8813C13.959 22.8813 14.884 23.7903 14.884 24.9132C14.884 26.0361 13.959 26.9451 12.8162 26.9451C11.6749 26.9451 10.7484 26.0361 10.7484 24.9132C10.7484 23.7903 11.6749 22.8813 12.8162 22.8813ZM18.978 26.7312C17.957 26.7312 17.1279 25.9151 17.1279 24.9118C17.1279 23.9085 17.957 23.0924 18.978 23.0924H39.4296C40.452 23.0924 41.2811 23.9085 41.2811 24.9118C41.2811 25.9151 40.452 26.7312 39.4296 26.7312H18.978ZM5.97566 8.34146H9.40239V11.772H5.97566C5.2926 11.772 4.66969 12.0478 4.22148 12.4883C3.77184 12.9301 3.49117 13.5408 3.49117 14.2106V58.6098C3.49117 59.2824 3.77041 59.8945 4.21862 60.3363C4.66969 60.7767 5.2926 61.0525 5.97566 61.0525H26.3986C26.6391 62.2402 26.9957 63.3884 27.4525 64.4831H5.97566C4.34177 64.4831 2.84535 63.8204 1.76277 62.7566C0.674463 61.6857 0 60.2195 0 58.6098V14.2106C0 12.5952 0.673031 11.1276 1.75418 10.0652C2.83532 9.00281 4.33031 8.34146 5.97566 8.34146ZM48.5843 38.9268V14.2106C48.5843 13.5408 48.3036 12.9287 47.8554 12.4855C47.3887 12.0287 46.757 11.7722 46.0983 11.772H42.6745V8.34146H46.0983C47.7365 8.34146 49.2286 9.00422 50.3112 10.0652C51.401 11.136 52.0754 12.6051 52.0754 14.2106V39.9062C50.9599 39.4756 49.7914 39.1449 48.5843 38.9268ZM25.9232 2.83677C27.6845 2.83677 29.1107 4.23968 29.1107 5.97045C29.1107 7.69981 27.6845 9.10272 25.9232 9.10272C24.1632 9.10272 22.7356 7.69981 22.7356 5.97045C22.7356 4.23968 24.1632 2.83677 25.9232 2.83677Z" fill="black"/>
</g>
<defs>
<clipPath id="clip0_5949_2064">
<rect width="60" height="72" fill="white"/>
</clipPath>
</defs>
</svg>
