<svg width="60" height="72" viewBox="0 0 60 72" fill="none" xmlns="http://www.w3.org/2000/svg">
<g clip-path="url(#clip0_5949_2060)">
<path fill-rule="evenodd" clip-rule="evenodd" d="M13.3189 5.5442H19.9232C20.3112 2.4175 22.8788 0 25.9933 0C29.0878 0 31.6425 2.38513 32.0563 5.47947L38.7523 5.5442C39.126 5.5442 39.4253 5.8397 39.4253 6.20697V13.5017C39.4253 13.8689 39.126 14.163 38.7523 14.163H13.326C12.958 14.163 12.6516 13.8689 12.6516 13.5017V6.20697C12.6501 6.12012 12.6663 6.03386 12.6992 5.95325C12.7321 5.87264 12.7811 5.7993 12.8432 5.73756C12.9054 5.67581 12.9795 5.6269 13.0612 5.59369C13.1429 5.56049 13.2305 5.54366 13.3189 5.5442ZM45.1031 42.7241C53.3327 42.7241 60 49.2786 60 57.3613C60 65.4483 53.3284 72 45.1031 72C36.8735 72 30.2076 65.4441 30.2076 57.3613C30.2076 49.2744 36.8778 42.7241 45.1031 42.7241ZM41.5303 54.35C41.5362 54.2012 41.5876 54.0576 41.6777 53.9378C41.7679 53.8181 41.8927 53.7278 42.0358 53.6788C42.0014 53.0991 41.9284 52.2252 42.0902 51.6666C42.2728 51.0809 42.671 50.5832 43.2072 50.2707C43.3976 50.1567 43.6024 50.061 43.8143 49.9864C44.1995 49.8485 44.0091 49.2139 44.4301 49.2055C45.4138 49.1815 47.032 50.0652 47.6621 50.7365C48.0644 51.1741 48.2936 51.7383 48.3064 52.3279L48.2663 53.7449C48.4568 53.7829 48.6115 53.9138 48.6802 54.0911C48.8907 54.9256 46.8215 56.8956 46.8215 57.1081C46.8258 57.1798 46.8558 57.2488 46.9045 57.3036C48.3394 59.2427 52.2072 58.3773 52.2072 62.2329L37.999 62.2343C37.999 58.3759 41.8683 59.2441 43.3031 57.3051C43.3733 57.2037 43.4062 57.1475 43.4048 57.1024C43.4048 56.9153 41.5303 55.0311 41.5303 54.35ZM5.97566 8.34163H9.40239V11.7709H5.97566C5.2926 11.7709 4.66969 12.0481 4.22148 12.4885C3.77184 12.9304 3.49117 13.5411 3.49117 14.2109V58.6095C3.49117 59.2779 3.77184 59.89 4.22148 60.3319C4.67255 60.7751 5.2969 61.0523 5.97566 61.0523H26.3971C26.6391 62.24 26.9943 63.3882 27.4525 64.483H5.97566C4.33604 64.483 2.83962 63.8202 1.75561 62.755C0.675895 61.694 0 60.2235 0 58.6095V14.2109C0 12.5955 0.673031 11.1278 1.75418 10.0654C2.83532 9.00299 4.33031 8.34163 5.97566 8.34163ZM48.5828 38.9262V14.2109C48.5828 13.5397 48.3021 12.929 47.8539 12.4857C47.3882 12.0284 46.7568 11.7713 46.0983 11.7709H42.673V8.34163H46.0983C47.7365 8.34163 49.2286 9.0044 50.3098 10.0654C51.3995 11.1362 52.074 12.6039 52.074 14.2109V39.907C50.9585 39.475 49.79 39.1443 48.5828 38.9262ZM18.978 37.792C17.957 37.792 17.1279 36.9773 17.1279 35.974C17.1279 34.9707 17.957 34.1545 18.978 34.1545H39.4296C40.4506 34.1545 41.2797 34.9707 41.2797 35.974C41.2797 36.9773 40.4506 37.792 39.4296 37.792H18.978ZM12.8162 33.942C13.959 33.942 14.884 34.8525 14.884 35.974C14.884 37.0969 13.959 38.0059 12.8162 38.0059C11.6749 38.0059 10.7499 37.0969 10.7499 35.974C10.7499 34.8525 11.6749 33.942 12.8162 33.942ZM12.8162 45.0051C13.959 45.0051 14.884 45.9155 14.884 47.037C14.884 48.1599 13.959 49.069 12.8162 49.069C11.6749 49.069 10.7499 48.1599 10.7499 47.037C10.7499 45.9155 11.6749 45.0051 12.8162 45.0051ZM18.9795 48.8551C17.9585 48.8551 17.1279 48.0403 17.1279 47.037C17.1279 46.0337 17.9585 45.2176 18.9795 45.2176H30.5728C29.608 46.3317 28.7786 47.5524 28.1012 48.8551H18.9795ZM12.8162 22.8818C13.959 22.8818 14.884 23.7908 14.884 24.9123C14.884 26.0352 13.959 26.9442 12.8162 26.9442C11.6749 26.9442 10.7499 26.0352 10.7499 24.9123C10.7499 23.7908 11.6749 22.8818 12.8162 22.8818ZM18.978 26.7304C17.957 26.7304 17.1279 25.9156 17.1279 24.9123C17.1279 23.9076 17.957 23.0929 18.978 23.0929H39.4296C40.4506 23.0929 41.2797 23.9076 41.2797 24.9123C41.2797 25.9156 40.4506 26.7304 39.4296 26.7304H18.978ZM25.9231 2.83683C27.6845 2.83683 29.1107 4.23836 29.1107 5.97057C29.1107 7.69996 27.6845 9.10149 25.9231 9.10149C24.1618 9.10149 22.7356 7.69996 22.7356 5.97057C22.7356 4.23836 24.1618 2.83683 25.9231 2.83683Z" fill="black"/>
</g>
<defs>
<clipPath id="clip0_5949_2060">
<rect width="60" height="72" fill="white"/>
</clipPath>
</defs>
</svg>
