<svg width="60" height="72" viewBox="0 0 60 72" fill="none" xmlns="http://www.w3.org/2000/svg">
<g clip-path="url(#clip0_5940_2041)">
<path d="M10.8405 36.6748C10.1393 36.6748 9.56964 36.1209 9.56964 35.4391C9.56964 34.7573 10.1393 34.2034 10.8405 34.2034H43.5383C44.2395 34.2034 44.8092 34.7573 44.8092 35.4391C44.8092 36.1209 44.2395 36.6748 43.5383 36.6748H10.8405ZM10.8405 44.1481C10.1393 44.1481 9.56964 43.5942 9.56964 42.9124C9.56964 42.2306 10.1393 41.6767 10.8405 41.6767H36.7402C37.4414 41.6767 38.0111 42.2306 38.0111 42.9124C38.0111 43.5942 37.4414 44.1481 36.7402 44.1481H10.8405ZM10.8405 51.6214C10.1393 51.6214 9.56964 51.0661 9.56964 50.3843C9.56964 49.7024 10.1393 49.1485 10.8405 49.1485H35.7455C35.0154 49.9063 34.3619 50.7343 33.7952 51.6214H10.8405ZM10.8405 59.0933C10.1393 59.0933 9.56964 58.5394 9.56964 57.8575C9.56964 57.1757 10.1393 56.6218 10.8405 56.6218H31.7133C31.534 57.4246 31.4183 58.2512 31.372 59.0933H10.8405ZM16.3692 27.9025H10.7451V19.3566H13.5571V25.7151H16.3692V27.9025ZM17.1427 23.6373C17.1427 22.0783 17.4434 20.941 18.0434 20.2254C18.6434 19.5098 19.7263 19.1514 21.2906 19.1514C22.8564 19.1514 23.9393 19.5098 24.5393 20.2254C25.1393 20.941 25.4386 22.0783 25.4386 23.6373C25.4386 24.4105 25.3764 25.0628 25.2492 25.5914C25.1219 26.12 24.9051 26.5811 24.5957 26.9719C24.2863 27.3641 23.8598 27.6523 23.3161 27.8336C22.7725 28.0164 22.0973 28.1078 21.2906 28.1078C20.4853 28.1078 19.8101 28.0164 19.2665 27.8336C18.7229 27.6523 18.2964 27.3641 17.987 26.9719C17.6776 26.5811 17.4593 26.12 17.3335 25.5914C17.2063 25.0628 17.1427 24.4105 17.1427 23.6373ZM20.1672 22.2146V25.7699H21.334C21.7171 25.7699 21.9961 25.7263 22.1696 25.6392C22.3446 25.5534 22.4299 25.3538 22.4299 25.0445V21.4906H21.2487C20.8742 21.4906 20.5995 21.5342 20.426 21.62C20.254 21.7057 20.1672 21.9039 20.1672 22.2146ZM28.9417 27.9025H25.9749L28.252 19.3566H32.5966L34.8752 27.9025H31.9084L31.5846 26.5487H29.2641L28.9417 27.9025ZM30.0463 21.7985L29.5822 24.5581H31.252L30.8039 21.7985H30.0463ZM40.9908 27.9025L38.8395 24.8674C38.7658 24.7676 38.7181 24.5483 38.6993 24.2109H38.6429V27.9025H35.8308V19.3566H38.4752L40.6251 22.3932C40.7002 22.493 40.7465 22.7109 40.7653 23.0483H40.8231V19.3566H43.6352V27.9025H40.9908ZM3.6188 6.65511H12.2949L11.9176 10.0825H6.08241C4.44867 10.0825 3.02892 11.4644 3.02892 13.0515V62.8679C3.02892 64.4466 4.4053 65.8383 6.08241 65.8383H32.5041C32.9407 66.9025 33.4945 67.9105 34.1479 68.8454H3.6188C1.64096 68.8454 0 67.2638 0 65.3266V10.1739C0 8.23805 1.62795 6.65511 3.6188 6.65511ZM51.3412 44.5572V13.0515C51.3412 11.4222 49.9214 10.0825 48.2877 10.0825H42.0853V6.65511H50.7614C52.7508 6.65511 54.3788 8.25492 54.3788 10.1739V45.568C53.413 45.1378 52.3966 44.7976 51.3412 44.5572ZM17.3046 4.91331H21.4063C21.7518 2.14246 24.052 0 26.841 0C29.6111 0 31.8998 2.11434 32.2699 4.85567L37.0699 4.91331C37.4039 4.91331 37.6728 5.17479 37.6728 5.49953V11.8004C37.6728 12.1251 37.4039 12.3866 37.0699 12.3866H17.3104C16.9822 12.3866 16.7075 12.1251 16.7075 11.8004V5.49953C16.7017 5.17479 16.9706 4.91331 17.3046 4.91331ZM24.5957 7.32287C24.9658 7.81631 25.4964 8.30412 26.0588 8.55436C26.5171 8.68932 27.0188 8.70056 27.4843 8.57685C28.2145 8.25211 28.8839 7.46907 29.1933 6.81256C29.2294 6.62699 29.254 6.4358 29.254 6.22634C29.254 4.83739 28.161 3.71134 26.8106 3.71134C25.4617 3.71134 24.3672 4.83739 24.3672 6.22634C24.3745 6.64386 24.4511 7.015 24.5957 7.32287Z" fill="black"/>
<path fill-rule="evenodd" clip-rule="evenodd" d="M47.627 47.9385C54.4598 47.9385 60.0001 53.3255 60.0001 59.9694C60.0001 66.6147 54.4598 72.0003 47.627 72.0003C40.7943 72.0003 35.254 66.6147 35.254 59.9694C35.254 53.3255 40.7943 47.9385 47.627 47.9385ZM46.1726 55.312C46.1726 53.4661 49.0656 53.4633 49.0656 55.3148V60.3574L52.3345 62.0388C52.3519 62.0472 52.3678 62.057 52.3822 62.0669L52.4111 62.0866C53.9278 63.0538 52.5167 65.379 50.8931 64.4652L50.8873 64.461L46.9331 62.4043C46.469 62.1625 46.1682 61.6859 46.1682 61.1728H46.1697L46.1726 55.312Z" fill="#FF7900"/>
</g>
<defs>
<clipPath id="clip0_5940_2041">
<rect width="60" height="72" fill="white"/>
</clipPath>
</defs>
</svg>
