<svg width="60" height="72" viewBox="0 0 60 72" fill="none" xmlns="http://www.w3.org/2000/svg">
<g clip-path="url(#clip0_5949_2066)">
<path fill-rule="evenodd" clip-rule="evenodd" d="M45.1045 42.7247C53.3341 42.7247 60 49.2791 60 57.3616C60 65.4484 53.3298 72 45.1045 72C36.8749 72 30.2076 65.4456 30.2076 57.3616C30.2076 49.2749 36.8792 42.7247 45.1045 42.7247ZM13.3174 5.54409H19.9232C20.3098 2.41745 22.8788 0 25.9933 0C29.0893 0 31.6425 2.38508 32.0563 5.47936L38.7523 5.54409C39.126 5.54409 39.4253 5.83959 39.4253 6.20685V13.5028C39.4253 13.8687 39.126 14.1642 38.7523 14.1642H13.3246C12.958 14.1642 12.6501 13.8687 12.6501 13.5028V6.20685C12.6444 5.83959 12.9451 5.54409 13.3174 5.54409ZM5.97422 8.34146H9.40239V11.772H5.97422C5.2926 11.772 4.66969 12.0464 4.22148 12.4883C3.77184 12.9287 3.49117 13.5408 3.49117 14.2106V58.6098C3.49117 59.2795 3.77184 59.8902 4.22148 60.3321C4.66826 60.7767 5.29117 61.0525 5.97422 61.0525H26.3971C26.6377 62.2402 26.9957 63.3884 27.4525 64.4831H5.97422C4.34177 64.4831 2.84535 63.8189 1.75847 62.7523C0.675895 61.6942 0 60.2251 0 58.6098V14.2106C0 12.5952 0.673031 11.1262 1.75418 10.0638C2.83532 9.00141 4.33174 8.34146 5.97422 8.34146ZM48.5842 38.9268V14.2106C48.5842 13.5746 48.3322 12.9906 47.9241 12.5572L47.8511 12.4897C47.4 12.0478 46.78 11.772 46.0983 11.772H42.6745V8.34146H46.0983C47.7422 8.34146 49.2372 9.00422 50.3169 10.0666L50.42 10.1764C51.4439 11.2331 52.0754 12.6585 52.0754 14.2106V39.9062C50.9585 39.4756 49.7914 39.1449 48.5842 38.9268ZM18.978 37.7927C17.957 37.7927 17.1279 36.978 17.1279 35.9733C17.1279 34.97 17.957 34.1553 18.978 34.1553H39.4296C40.452 34.1553 41.2811 34.97 41.2811 35.9733C41.2811 36.978 40.452 37.7927 39.4296 37.7927H18.978ZM12.8162 33.9428C13.959 33.9428 14.8826 34.8518 14.8826 35.9747C14.8826 37.0976 13.959 38.0066 12.8162 38.0066C11.6735 38.0066 10.7484 37.0976 10.7484 35.9747C10.7484 34.8518 11.6735 33.9428 12.8162 33.9428ZM12.8162 45.0056C13.959 45.0056 14.8826 45.916 14.8826 47.0375C14.8826 48.159 13.959 49.0694 12.8162 49.0694C11.6735 49.0694 10.7484 48.159 10.7484 47.0375C10.7484 45.916 11.6735 45.0056 12.8162 45.0056ZM18.9795 48.8555C17.9585 48.8555 17.1279 48.0408 17.1279 47.0361C17.1279 46.0328 17.9585 45.2181 18.9795 45.2181H30.5728C29.6073 46.3319 28.7773 47.5527 28.0998 48.8555H18.9795ZM12.8162 22.8813C13.959 22.8813 14.8826 23.7903 14.8826 24.9132C14.8826 26.0361 13.959 26.9451 12.8162 26.9451C11.6735 26.9451 10.7484 26.0361 10.7484 24.9132C10.7484 23.7903 11.6735 22.8813 12.8162 22.8813ZM18.978 26.7312C17.957 26.7312 17.1279 25.9151 17.1279 24.9118C17.1279 23.9085 17.957 23.0924 18.978 23.0924H39.4296C40.452 23.0924 41.2811 23.9085 41.2811 24.9118C41.2811 25.9151 40.452 26.7312 39.4296 26.7312H18.978ZM25.9231 2.83677C27.6845 2.83677 29.1107 4.23968 29.1107 5.97045C29.1107 7.69981 27.6845 9.10272 25.9231 9.10272C24.1618 9.10272 22.7341 7.69981 22.7341 5.97045C22.7341 4.23968 24.1618 2.83677 25.9231 2.83677ZM40.7613 54.546L43.5508 57.1421L49.0811 51.6262C49.5967 51.1098 49.9189 50.6989 50.5575 51.3405L52.6224 53.4174C53.2998 54.0746 53.264 54.4587 52.6253 55.075L44.7265 62.7003C43.3819 63.9991 43.6138 64.0807 42.2492 62.7453L37.2831 57.8935C37.0024 57.591 37.0325 57.2842 37.3389 56.9789L39.7346 54.5417C40.0983 54.1703 40.3876 54.1942 40.7613 54.546Z" fill="black"/>
</g>
<defs>
<clipPath id="clip0_5949_2066">
<rect width="60" height="72" fill="white"/>
</clipPath>
</defs>
</svg>
